<?xml version="1.0" encoding="utf-8"?>
<!-- Generator: Adobe Illustrator 14.0.0, SVG Export Plug-In . SVG Version: 6.00 Build 43363)  -->
<!DOCTYPE svg PUBLIC "-//W3C//DTD SVG 1.1//EN" "http://www.w3.org/Graphics/SVG/1.1/DTD/svg11.dtd">
<svg version="1.1" id="Layer_1" xmlns="http://www.w3.org/2000/svg" xmlns:xlink="http://www.w3.org/1999/xlink" x="0px" y="0px"
	 width="651.046px" height="155px" viewBox="0 0 651.046 155" enable-background="new 0 0 651.046 155" xml:space="preserve">
<g id="Type">
	<g>
		<g>
			<path fill="#488FCC" d="M508.58,47.86l-9.354,8.259c-3.286-4.57-6.635-6.86-10.041-6.86c-1.66,0-3.014,0.445-4.07,1.331
				c-1.053,0.89-1.583,1.892-1.583,3.004s0.378,2.165,1.13,3.158c1.027,1.323,4.117,4.168,9.271,8.529
				c4.821,4.032,7.745,6.58,8.774,7.629c2.556,2.585,4.373,5.063,5.446,7.422c1.07,2.366,1.605,4.944,1.605,7.742
				c0,5.446-1.882,9.945-5.648,13.497c-3.765,3.548-8.675,5.321-14.729,5.321c-4.729,0-8.846-1.157-12.354-3.473
				c-3.509-2.316-6.517-5.958-9.015-10.922l10.624-6.41c3.192,5.865,6.869,8.803,11.027,8.803c2.172,0,3.994-0.633,5.472-1.896
				c1.477-1.266,2.216-2.723,2.216-4.38c0-1.506-0.561-3.009-1.675-4.514c-1.117-1.502-3.573-3.805-7.369-6.908
				c-7.237-5.892-11.909-10.446-14.02-13.65c-2.11-3.206-3.162-6.402-3.162-9.591c0-4.604,1.755-8.554,5.264-11.844
				c3.511-3.295,7.839-4.943,12.992-4.943c3.313,0,6.47,0.766,9.467,2.302C501.839,41,505.087,43.8,508.58,47.86z"/>
			<path fill="#488FCC" d="M449.917,56.12h12.321v49.105h-12.321v-5.19c-2.404,2.286-4.814,3.933-7.237,4.945
				c-2.416,1.007-5.04,1.511-7.865,1.511c-6.342,0-11.824-2.461-16.454-7.379c-4.625-4.921-6.942-11.038-6.942-18.344
				c0-7.583,2.238-13.797,6.718-18.643c4.478-4.843,9.915-7.265,16.316-7.265c2.945,0,5.71,0.556,8.293,1.669
				c2.584,1.112,4.975,2.786,7.171,5.012L449.917,56.12L449.917,56.12z M436.963,66.233c-3.809,0-6.971,1.344-9.485,4.04
				c-2.522,2.692-3.78,6.146-3.78,10.356c0,4.242,1.279,7.733,3.843,10.472c2.563,2.74,5.723,4.108,9.471,4.108
				c3.871,0,7.079-1.349,9.625-4.04c2.55-2.696,3.824-6.222,3.824-10.587c0-4.271-1.274-7.728-3.824-10.377
				C444.089,67.555,440.864,66.233,436.963,66.233z"/>
			<path fill="#488FCC" d="M391.208,56.12h12.326v49.105h-12.326v-5.19c-2.404,2.286-4.813,3.933-7.23,4.945
				c-2.423,1.007-5.043,1.511-7.871,1.511c-6.338,0-11.823-2.461-16.454-7.379c-4.627-4.921-6.942-11.038-6.942-18.344
				c0-7.583,2.239-13.797,6.716-18.643c4.479-4.843,9.916-7.265,16.319-7.265c2.946,0,5.71,0.556,8.293,1.669
				c2.584,1.112,4.979,2.786,7.168,5.012v-5.42h0.002V56.12z M378.259,66.233c-3.811,0-6.978,1.344-9.491,4.04
				c-2.521,2.692-3.781,6.146-3.781,10.356c0,4.242,1.281,7.733,3.846,10.472c2.566,2.74,5.72,4.108,9.469,4.108
				c3.87,0,7.08-1.349,9.624-4.04c2.55-2.696,3.825-6.222,3.825-10.587c0-4.271-1.275-7.728-3.825-10.377
				C385.379,67.555,382.157,66.233,378.259,66.233z"/>
			<path fill="#488FCC" d="M306.818,38.835h13.408c7.248,0,12.479,0.672,15.685,2.007c3.2,1.338,5.729,3.504,7.578,6.5
				c1.854,2.997,2.779,6.582,2.779,10.762c0,4.635-1.213,8.486-3.634,11.557c-2.419,3.068-5.708,5.208-9.86,6.41
				c-2.44,0.694-6.877,1.038-13.314,1.038v28.12h-12.639V38.835H306.818z M319.456,64.786h4.018c3.157,0,5.353-0.227,6.589-0.677
				c1.232-0.454,2.204-1.202,2.911-2.244c0.706-1.044,1.061-2.301,1.061-3.781c0-2.564-0.993-4.438-2.979-5.614
				c-1.448-0.877-4.12-1.315-8.032-1.315h-3.569L319.456,64.786L319.456,64.786z"/>
			<path fill="#FEC111" d="M252.356,56.12h12.319v5.032c2.794-2.354,5.328-3.993,7.597-4.914c2.267-0.919,4.585-1.381,6.961-1.381
				c4.866,0,9,1.699,12.395,5.1c2.853,2.888,4.28,7.16,4.28,12.817v32.45h-12.184V83.722c0-5.858-0.263-9.752-0.786-11.676
				c-0.526-1.926-1.441-3.39-2.748-4.396c-1.305-1.009-2.917-1.51-4.841-1.51c-2.49,0-4.629,0.834-6.413,2.5
				c-1.789,1.668-3.026,3.974-3.719,6.919c-0.359,1.537-0.539,4.855-0.539,9.964v19.7h-12.32L252.356,56.12L252.356,56.12z"/>
			<path fill="#FEC111" d="M244.69,84.24h-39.58c0.568,3.487,2.097,6.266,4.58,8.329c2.481,2.057,5.648,3.087,9.5,3.087
				c4.604,0,8.562-1.608,11.871-4.827l10.382,4.876c-2.588,3.668-5.688,6.384-9.299,8.146c-3.611,1.764-7.898,2.64-12.863,2.64
				c-7.703,0-13.975-2.431-18.821-7.286c-4.844-4.855-7.266-10.946-7.266-18.256c0-7.494,2.416-13.71,7.243-18.664
				c4.833-4.951,10.884-7.425,18.167-7.425c7.733,0,14.021,2.474,18.867,7.425c4.843,4.951,7.267,11.487,7.267,19.607L244.69,84.24z
				 M232.371,74.535c-0.813-2.735-2.417-4.964-4.814-6.68c-2.397-1.711-5.18-2.572-8.344-2.572c-3.434,0-6.449,0.962-9.041,2.889
				c-1.629,1.202-3.136,3.324-4.521,6.363H232.371z"/>
			<path fill="#FEC111" d="M149.019,56.12v5.417c2.228-2.225,4.632-3.898,7.221-5.012c2.587-1.113,5.356-1.668,8.305-1.668
				c6.409,0,11.856,2.422,16.337,7.266c4.483,4.846,6.727,11.058,6.727,18.64c0,7.311-2.319,13.426-6.949,18.345
				c-4.634,4.918-10.128,7.379-16.474,7.379c-2.829,0-5.461-0.505-7.898-1.511c-2.437-1.013-4.86-2.658-7.266-4.943v23.151h-12.23
				V56.116L149.019,56.12L149.019,56.12z M161.969,66.233c-3.881,0-7.099,1.32-9.657,3.971c-2.557,2.648-3.836,6.107-3.836,10.376
				c0,4.365,1.28,7.893,3.836,10.587c2.557,2.691,5.775,4.042,9.657,4.042c3.762,0,6.929-1.37,9.502-4.11
				c2.573-2.738,3.858-6.231,3.858-10.472c0-4.212-1.262-7.665-3.792-10.355C169.013,67.577,165.821,66.233,161.969,66.233z"/>
		</g>
	</g>
</g>
<g id="Logo">
	<g>
		<path fill="#FEC111" d="M94.167,37.167c9.394,0,17.473,3.398,24.229,10.197c6.762,6.801,10.141,15.09,10.141,24.869
			c0,9.687-3.335,17.887-10.003,24.599c-6.67,6.711-14.759,10.065-24.275,10.065c-9.965,0-18.245-3.444-24.84-10.335
			c-6.594-6.891-9.89-15.076-9.89-24.551c0-6.351,1.537-12.188,4.605-17.511c3.072-5.328,7.296-9.548,12.669-12.663
			C82.176,38.725,87.965,37.167,94.167,37.167z M94.034,49.53c-6.146,0-11.31,2.14-15.499,6.41c-4.187,4.276-6.28,9.707-6.28,16.292
			c0,7.344,2.637,13.15,7.908,17.422c4.096,3.343,8.794,5.012,14.095,5.012c5.993,0,11.099-2.165,15.314-6.5
			c4.219-4.331,6.328-9.673,6.328-16.023c0-6.316-2.125-11.666-6.37-16.043C105.283,51.721,100.115,49.53,94.034,49.53z"/>
		<g>
			<path fill="#BDBDBD" d="M36.706,77.314c5.013,0,9.091,4.079,9.091,9.092c0,5.014-4.079,9.094-9.091,9.094
				c-5.014,0-9.093-4.08-9.093-9.094C27.613,81.394,31.692,77.314,36.706,77.314 M36.706,70.741
				c-8.651,0-15.666,7.012-15.666,15.665c0,8.653,7.013,15.666,15.666,15.666c8.651,0,15.664-7.011,15.664-15.666
				C52.369,77.752,45.357,70.741,36.706,70.741L36.706,70.741z"/>
		</g>
		<g>
			<path fill="#488FCC" d="M31.552,12.778c11.356,0,20.596,9.24,20.596,20.598c0,11.356-9.239,20.595-20.596,20.595
				c-11.357,0-20.597-9.239-20.597-20.595C10.955,22.018,20.196,12.778,31.552,12.778 M31.552,1.823C14.125,1.823,0,15.949,0,33.375
				c0,17.425,14.125,31.551,31.552,31.551c17.425,0,31.551-14.126,31.551-31.551C63.103,15.949,48.978,1.823,31.552,1.823
				L31.552,1.823z"/>
		</g>
	</g>
</g>
<g>
	<g>
		<path fill="#AEB0B2" d="M523.693,67.826c1.424,0,2.636,0.503,3.641,1.509c1.008,1.005,1.51,2.219,1.51,3.64
			c0,1.399-0.502,2.602-1.51,3.607c-1.005,1.006-2.217,1.509-3.641,1.509c-1.42,0-2.634-0.496-3.638-1.493
			c-1.007-0.993-1.509-2.203-1.509-3.624s0.502-2.634,1.509-3.64C521.059,68.329,522.273,67.826,523.693,67.826z M523.693,95.078
			c1.424,0,2.636,0.498,3.641,1.494c1.008,0.995,1.51,2.2,1.51,3.622c0,1.423-0.502,2.636-1.51,3.64
			c-1.005,1.007-2.217,1.509-3.641,1.509c-1.42,0-2.634-0.502-3.638-1.509c-1.007-1.004-1.509-2.217-1.509-3.64
			c0-1.422,0.502-2.627,1.509-3.622C521.059,95.576,522.273,95.078,523.693,95.078z"/>
		<path fill="#AEB0B2" d="M540.806,67.826c1.422,0,2.635,0.503,3.641,1.509c1.008,1.005,1.51,2.219,1.51,3.64
			c0,1.399-0.502,2.602-1.51,3.607c-1.006,1.006-2.219,1.509-3.641,1.509s-2.634-0.496-3.64-1.493
			c-1.005-0.993-1.508-2.203-1.508-3.624s0.503-2.634,1.508-3.64C538.172,68.329,539.384,67.826,540.806,67.826z M540.806,95.078
			c1.422,0,2.635,0.498,3.641,1.494c1.008,0.995,1.51,2.2,1.51,3.622c0,1.423-0.502,2.636-1.51,3.64
			c-1.006,1.007-2.219,1.509-3.641,1.509s-2.634-0.502-3.64-1.509c-1.005-1.004-1.508-2.217-1.508-3.64
			c0-1.422,0.503-2.627,1.508-3.622C538.172,95.576,539.384,95.078,540.806,95.078z"/>
		<path fill="#AEB0B2" d="M554.048,56.183h8.811L583.5,87.929V56.183h9.182v48.242h-8.832l-20.616-31.646v31.646h-9.185V56.183z"/>
		<path fill="#AEB0B2" d="M646.558,64.054l-6.466,6.395c-4.093-4.328-8.863-6.493-14.313-6.493c-4.745,0-8.726,1.575-11.931,4.724
			c-3.206,3.147-4.81,6.973-4.81,11.478c0,4.657,1.664,8.603,4.992,11.837c3.326,3.238,7.431,4.855,12.308,4.855
			c3.176,0,5.853-0.667,8.03-2.001c2.177-1.331,3.934-3.421,5.27-6.263h-13.971V79.96h24.269l0.064,2.034
			c0,4.219-1.093,8.219-3.278,12.001c-2.188,3.785-5.019,6.672-8.496,8.658c-3.476,1.99-7.553,2.985-12.232,2.985
			c-5.006,0-9.471-1.087-13.396-3.263c-3.925-2.176-7.029-5.275-9.312-9.299c-2.286-4.021-3.428-8.36-3.428-13.019
			c0-6.385,2.109-11.938,6.33-16.66c5.005-5.619,11.519-8.429,19.546-8.429c4.196,0,8.12,0.776,11.772,2.328
			C640.59,58.611,643.608,60.862,646.558,64.054z"/>
	</g>
</g>
</svg>
